<?xml version="1.0" encoding="UTF-8" standalone="no"?>
<svg
   xmlns:dc="http://purl.org/dc/elements/1.1/"
   xmlns:cc="http://creativecommons.org/ns#"
   xmlns:rdf="http://www.w3.org/1999/02/22-rdf-syntax-ns#"
   xmlns:svg="http://www.w3.org/2000/svg"
   xmlns="http://www.w3.org/2000/svg"
   version="1.1"
   id="svg2"
   viewBox="0 0 379.6479 379.64789"
   height="107.14507mm"
   width="107.14507mm">
  <defs
     id="defs4" />
  <metadata
     id="metadata7">
    <rdf:RDF>
      <cc:Work
         rdf:about="">
        <dc:format>image/svg+xml</dc:format>
        <dc:type
           rdf:resource="http://purl.org/dc/dcmitype/StillImage" />
        <dc:title></dc:title>
      </cc:Work>
    </rdf:RDF>
  </metadata>
  <g
     transform="translate(225.41937,-373.38824)"
     id="layer1">
    <path
       id="path4201"
       d="m -225.41937,563.21219 0,-189.82395 189.823949,0 189.823941,0 0,189.82395 0,189.82394 -189.823941,0 -189.823949,0 0,-189.82394 z m 209.483419,119.91978 c 2.83463,-3.72336 3.32501,-10.54728 2.2518,-31.33528 -3.12837,-60.59653 -27.58414,-119.39406 -64.70257,-155.56049 -7.08972,-6.90788 -12.8904,-13.78914 -12.8904,-15.29169 0,-1.50255 5.12525,-7.76195 11.38944,-13.90979 6.26419,-6.14784 11.38944,-12.64916 11.38944,-14.44739 0,-4.53294 -91.149319,-4.75428 -95.671269,-0.23233 -4.49916,4.49917 -4.30306,95.67127 0.20578,95.67127 1.78363,0 10.00532,-6.83366 18.27042,-15.18592 8.2651,-8.35225 16.92567,-15.18591 19.24572,-15.18591 2.32004,0 11.13566,7.39472 19.59026,16.43272 25.863669,27.64834 42.111549,69.12721 45.117119,115.17855 1.84324,28.24213 3.81024,34.71262 11.5548,38.00989 9.15749,3.8988 30.0511,1.37101 34.24946,-4.14363 z m 15.77432958,-87.68236 c 0,-1.5937 5.05490002,-13.2886 11.23312042,-25.98866 10.85193,-22.30744 34.99551,-51.80651 42.40113,-51.80651 1.59923,0 10.66165,7.48584 20.13875,16.63521 9.4771,9.14936 18.39508,15.91581 19.81777,15.03654 3.87884,-2.39726 3.45766,-93.06305 -0.45049,-96.97119 -4.07385,-4.07384 -94.5826204,-4.31528 -97.0895404,-0.25899 -0.94562,1.53005 4.07143998,8.63946 11.16729,15.82456 L 19.940709,480.96693 2.8036286,499.11814 c -9.42539,9.98316 -20.0787196,23.64783 -23.6740596,30.36593 l -6.53699,12.21473 8.85225,24.04437 c 4.86873,13.2244 9.8649396,26.67121 11.1026696,29.8818 2.19889,5.70373 7.29087998,5.58126 7.29087998,-0.17536 z"
       style="fill:#000000" />
  </g>
</svg>
